<svg width="405" height="50" viewBox="0 0 405 50" fill="none" xmlns="http://www.w3.org/2000/svg">
<rect width="118" height="50" fill="black"/>
<path d="M37.5938 24.144V33H35.0738V30.912C34.4978 32.496 33.3458 33.288 31.6418 33.288C28.3058 33.288 26.4338 30.312 26.4338 25.032C26.4338 19.68 28.4258 16.872 32.2418 16.872C34.8338 16.872 36.5618 18.192 37.3778 20.736L34.8818 21.552C34.4258 20.136 33.5378 19.416 32.2658 19.416C30.2498 19.416 29.3138 21.24 29.3138 25.2C29.3138 28.944 30.1538 30.744 32.1698 30.744C33.8498 30.744 34.7618 29.496 34.7618 27.12V26.64H32.2418V24.144H37.5938ZM45.5755 33.288C42.2635 33.288 40.3915 31.488 40.3915 28.272V17.16H43.2235V27.912C43.2235 29.88 43.9675 30.744 45.6235 30.744C47.2795 30.744 48.0235 29.88 48.0235 27.912V17.16H50.7595V28.272C50.7595 31.488 48.8875 33.288 45.5755 33.288ZM64.4772 19.656H57.1812V23.616H62.5092V26.112H57.1812V30.504H64.4772V33H54.3492V17.16H64.4772V19.656ZM72.3868 33.288C69.4588 33.288 67.6348 32.088 66.7228 29.544L69.1948 28.488C69.6988 29.976 70.8268 30.744 72.4588 30.744C74.0908 30.744 75.0988 29.976 75.0988 28.656C75.0988 27.6 74.4988 27.048 72.9148 26.592L70.9948 26.04C68.3788 25.296 67.2748 24 67.2748 21.648C67.2748 18.648 69.3148 16.872 72.4588 16.872C75.0028 16.872 76.6588 18 77.4988 20.304L74.9548 21.312C74.5228 20.064 73.6108 19.416 72.3388 19.416C70.9468 19.416 70.0588 20.16 70.0588 21.432C70.0588 22.464 70.6588 23.016 72.2428 23.472L74.1628 24.024C76.7788 24.768 77.8828 26.088 77.8828 28.488C77.8828 31.536 75.8188 33.288 72.3868 33.288ZM91.6485 17.16V19.656H87.2805V33H84.4485V19.656H80.0805V17.16H91.6485Z" fill="white"/>
<rect x="118" width="287" height="50" fill="url(#paint0_linear_13_524)"/>
<path d="M158.025 34.4C155.475 34.4 153.4 33.5 151.925 31.9C150.375 30.2 149.525 27.85 149.525 25.125C149.525 22.325 150.475 19.85 152.175 18.15C153.65 16.65 155.725 15.775 158.3 15.775C162.9 15.775 165.65 18.225 166.225 21.975H161.925C161.6 20.525 160.4 19.425 158.45 19.425C155.5 19.425 154.025 21.875 154.025 25.125C154.025 28.4 155.725 30.825 158.525 30.825C160.85 30.825 162.225 29.275 162.4 27.7V27.65H159.05V24.4H166.5V34H163.4L163.15 31.85H163.1C161.925 33.675 160.175 34.4 158.025 34.4ZM172.808 34.375C169.858 34.375 168.308 32.45 168.308 29.6V21.2H172.358V28.75C172.358 30.15 172.983 30.925 174.283 30.925C175.683 30.925 176.533 29.875 176.533 28.35V21.2H180.608V34H176.708V32.425H176.633C175.708 33.675 174.583 34.375 172.808 34.375ZM188.818 34.375C184.593 34.375 181.993 31.45 181.993 27.575C181.993 23.75 184.668 20.825 188.568 20.825C190.393 20.825 191.843 21.425 192.943 22.425C194.468 23.825 195.218 26.05 195.193 28.65H185.993C186.243 30.375 187.193 31.45 188.868 31.45C189.943 31.45 190.643 30.975 190.993 30.175H194.968C194.693 31.325 193.943 32.425 192.818 33.2C191.743 33.95 190.443 34.375 188.818 34.375ZM186.018 26.225H191.068C190.918 24.7 189.968 23.725 188.643 23.725C187.093 23.725 186.293 24.7 186.018 26.225ZM202.007 34.4C198.257 34.4 195.907 32.675 195.782 29.85H199.632C199.782 31.125 200.632 31.75 201.982 31.75C203.207 31.75 203.982 31.3 203.982 30.475C203.982 29.325 202.432 29.2 200.732 28.9C198.507 28.525 196.132 27.925 196.132 24.925C196.132 22.225 198.632 20.825 201.657 20.825C205.282 20.825 207.232 22.4 207.432 24.925H203.682C203.532 23.775 202.757 23.425 201.632 23.425C200.632 23.425 199.857 23.8 199.857 24.6C199.857 25.5 201.307 25.625 202.932 25.925C205.182 26.3 207.832 26.875 207.832 30.15C207.832 32.95 205.357 34.4 202.007 34.4ZM213.863 34.15C211.488 34.15 209.788 33.375 209.788 30.625V23.75H208.088V21.2H209.788V17.15H213.763V21.2H216.088V23.75H213.763V29.75C213.763 30.75 214.313 31 215.188 31C215.538 31 215.938 30.975 216.088 30.975V33.95C215.738 34.05 214.963 34.15 213.863 34.15ZM224.785 34V23.05H221.11V20.2C223.385 20.125 225.235 19.05 225.66 16.725H229.01V34H224.785Z" fill="white"/>
<defs>
<linearGradient id="paint0_linear_13_524" x1="405" y1="50" x2="118" y2="7.25135e-06" gradientUnits="userSpaceOnUse">
<stop stop-color="#4562FF"/>
<stop offset="1" stop-color="#1C3198"/>
</linearGradient>
</defs>
</svg>
