<svg width="543" height="159" viewBox="0 0 543 159" fill="none" xmlns="http://www.w3.org/2000/svg">
<path d="M26 0H543V159H26V0Z" fill="url(#paint0_linear_13_555)"/>
<path d="M90.4105 59V28.97H112.755V35.228H97.8445V41.318H110.319V47.324H97.8445V59H90.4105ZM115.256 59V37.496H122.102V59H115.256ZM115.256 34.514V28.97H122.102V34.514H115.256ZM125.387 59V37.496H131.939V40.856H132.065C133.577 38.294 135.341 37.16 137.945 37.16C138.575 37.16 138.995 37.202 139.289 37.328V43.208H139.121C134.921 42.62 132.233 44.678 132.233 49.34V59H125.387ZM150.621 59.672C144.321 59.672 140.373 56.774 140.163 52.028H146.631C146.883 54.17 148.311 55.22 150.579 55.22C152.637 55.22 153.939 54.464 153.939 53.078C153.939 51.146 151.335 50.936 148.479 50.432C144.741 49.802 140.751 48.794 140.751 43.754C140.751 39.218 144.951 36.866 150.033 36.866C156.123 36.866 159.399 39.512 159.735 43.754H153.435C153.183 41.822 151.881 41.234 149.991 41.234C148.311 41.234 147.009 41.864 147.009 43.208C147.009 44.72 149.445 44.93 152.175 45.434C155.955 46.064 160.407 47.03 160.407 52.532C160.407 57.236 156.249 59.672 150.621 59.672ZM170.54 59.252C166.55 59.252 163.694 57.95 163.694 53.33V41.78H160.838V37.496H163.694V30.692H170.372V37.496H174.278V41.78H170.372V51.86C170.372 53.54 171.296 53.96 172.766 53.96C173.354 53.96 174.026 53.918 174.278 53.918V58.916C173.69 59.084 172.388 59.252 170.54 59.252ZM177.159 59V28.97H184.635L193.539 44.048C194.001 44.888 195.597 47.87 195.597 47.87H195.681C195.681 47.87 195.597 44.258 195.597 43.208V28.97H202.863V59H195.387L186.567 44.132C186.063 43.334 184.425 40.1 184.425 40.1H184.341C184.341 40.1 184.425 43.964 184.425 45.014V59H177.159ZM212.899 59.546C208.615 59.546 205.549 57.236 205.549 52.994C205.549 48.248 209.329 46.82 213.781 46.232C217.813 45.728 219.241 45.308 219.241 43.838C219.241 42.452 218.359 41.528 216.301 41.528C214.117 41.528 213.025 42.494 212.815 44.3H206.515C206.683 40.31 209.749 36.908 216.259 36.908C219.493 36.908 221.677 37.496 223.231 38.672C225.079 40.016 225.961 42.116 225.961 44.804V55.64C225.961 57.362 226.129 58.328 226.717 58.706V59H220.081C219.745 58.538 219.535 57.698 219.367 56.606H219.283C218.023 58.412 216.133 59.546 212.899 59.546ZM215.083 55.178C217.645 55.178 219.409 53.624 219.409 51.314V48.752C218.527 49.214 217.267 49.55 215.881 49.886C213.235 50.474 212.143 51.146 212.143 52.784C212.143 54.506 213.403 55.178 215.083 55.178ZM229.28 59V37.496H235.832V40.562H235.958C237.302 38.336 239.36 36.866 242.468 36.866C245.282 36.866 247.424 38.336 248.516 40.646H248.6C250.28 38.042 252.59 36.866 255.362 36.866C260.234 36.866 262.67 40.184 262.67 45.014V59H255.824V46.232C255.824 43.922 254.858 42.578 252.8 42.578C250.616 42.578 249.398 44.384 249.398 46.946V59H242.552V46.232C242.552 43.922 241.586 42.578 239.528 42.578C237.386 42.578 236.126 44.384 236.126 46.946V59H229.28ZM276.284 59.63C269.186 59.63 264.818 54.716 264.818 48.206C264.818 41.78 269.312 36.866 275.864 36.866C278.93 36.866 281.366 37.874 283.214 39.554C285.776 41.906 287.036 45.644 286.994 50.012H271.538C271.958 52.91 273.554 54.716 276.368 54.716C278.174 54.716 279.35 53.918 279.938 52.574H286.616C286.154 54.506 284.894 56.354 283.004 57.656C281.198 58.916 279.014 59.63 276.284 59.63ZM271.58 45.938H280.064C279.812 43.376 278.216 41.738 275.99 41.738C273.386 41.738 272.042 43.376 271.58 45.938ZM296.227 59V28.97H303.661V52.7H317.143V59H296.227ZM326.307 59.546C322.023 59.546 318.957 57.236 318.957 52.994C318.957 48.248 322.737 46.82 327.189 46.232C331.221 45.728 332.649 45.308 332.649 43.838C332.649 42.452 331.767 41.528 329.709 41.528C327.525 41.528 326.433 42.494 326.223 44.3H319.923C320.091 40.31 323.157 36.908 329.667 36.908C332.901 36.908 335.085 37.496 336.639 38.672C338.487 40.016 339.369 42.116 339.369 44.804V55.64C339.369 57.362 339.537 58.328 340.125 58.706V59H333.489C333.153 58.538 332.943 57.698 332.775 56.606H332.691C331.431 58.412 329.541 59.546 326.307 59.546ZM328.491 55.178C331.053 55.178 332.817 53.624 332.817 51.314V48.752C331.935 49.214 330.675 49.55 329.289 49.886C326.643 50.474 325.551 51.146 325.551 52.784C325.551 54.506 326.811 55.178 328.491 55.178ZM351.844 59.672C345.544 59.672 341.596 56.774 341.386 52.028H347.854C348.106 54.17 349.534 55.22 351.802 55.22C353.86 55.22 355.162 54.464 355.162 53.078C355.162 51.146 352.558 50.936 349.702 50.432C345.964 49.802 341.974 48.794 341.974 43.754C341.974 39.218 346.174 36.866 351.256 36.866C357.346 36.866 360.622 39.512 360.958 43.754H354.658C354.406 41.822 353.104 41.234 351.214 41.234C349.534 41.234 348.232 41.864 348.232 43.208C348.232 44.72 350.668 44.93 353.398 45.434C357.178 46.064 361.63 47.03 361.63 52.532C361.63 57.236 357.472 59.672 351.844 59.672ZM371.763 59.252C367.773 59.252 364.917 57.95 364.917 53.33V41.78H362.061V37.496H364.917V30.692H371.595V37.496H375.501V41.78H371.595V51.86C371.595 53.54 372.519 53.96 373.989 53.96C374.577 53.96 375.249 53.918 375.501 53.918V58.916C374.913 59.084 373.611 59.252 371.763 59.252ZM378.381 59V28.97H385.857L394.761 44.048C395.223 44.888 396.819 47.87 396.819 47.87H396.903C396.903 47.87 396.819 44.258 396.819 43.208V28.97H404.085V59H396.609L387.789 44.132C387.285 43.334 385.647 40.1 385.647 40.1H385.563C385.563 40.1 385.647 43.964 385.647 45.014V59H378.381ZM414.122 59.546C409.838 59.546 406.772 57.236 406.772 52.994C406.772 48.248 410.552 46.82 415.004 46.232C419.036 45.728 420.464 45.308 420.464 43.838C420.464 42.452 419.582 41.528 417.524 41.528C415.34 41.528 414.248 42.494 414.038 44.3H407.738C407.906 40.31 410.972 36.908 417.482 36.908C420.716 36.908 422.9 37.496 424.454 38.672C426.302 40.016 427.184 42.116 427.184 44.804V55.64C427.184 57.362 427.352 58.328 427.94 58.706V59H421.304C420.968 58.538 420.758 57.698 420.59 56.606H420.506C419.246 58.412 417.356 59.546 414.122 59.546ZM416.306 55.178C418.868 55.178 420.632 53.624 420.632 51.314V48.752C419.75 49.214 418.49 49.55 417.104 49.886C414.458 50.474 413.366 51.146 413.366 52.784C413.366 54.506 414.626 55.178 416.306 55.178ZM430.502 59V37.496H437.054V40.562H437.18C438.524 38.336 440.582 36.866 443.69 36.866C446.504 36.866 448.646 38.336 449.738 40.646H449.822C451.502 38.042 453.812 36.866 456.584 36.866C461.456 36.866 463.892 40.184 463.892 45.014V59H457.046V46.232C457.046 43.922 456.08 42.578 454.022 42.578C451.838 42.578 450.62 44.384 450.62 46.946V59H443.774V46.232C443.774 43.922 442.808 42.578 440.75 42.578C438.608 42.578 437.348 44.384 437.348 46.946V59H430.502ZM477.506 59.63C470.408 59.63 466.04 54.716 466.04 48.206C466.04 41.78 470.534 36.866 477.086 36.866C480.152 36.866 482.588 37.874 484.436 39.554C486.998 41.906 488.258 45.644 488.216 50.012H472.76C473.18 52.91 474.776 54.716 477.59 54.716C479.396 54.716 480.572 53.918 481.16 52.574H487.838C487.376 54.506 486.116 56.354 484.226 57.656C482.42 58.916 480.236 59.63 477.506 59.63ZM472.802 45.938H481.286C481.034 43.376 479.438 41.738 477.212 41.738C474.608 41.738 473.264 43.376 472.802 45.938ZM95.6605 95V76.66H88.8845V74.98H104.285V76.66H97.5365V95H95.6605ZM106.189 95V80.524H107.925V95H106.189ZM106.189 77.444V74.98H107.925V77.444H106.189ZM114.839 95.112C113.187 95.112 112.067 94.356 112.067 92.508V81.952H109.883V80.524H112.067V76.072H113.803V80.524H116.491V81.952H113.803V92.228C113.803 93.264 114.279 93.6 115.203 93.6C115.595 93.6 116.099 93.488 116.351 93.376H116.435V94.86C115.959 95.028 115.455 95.112 114.839 95.112ZM118.85 95V74.98H120.586V95H118.85ZM129.57 95.364C125.23 95.364 122.822 92.116 122.822 87.776C122.822 83.436 125.426 80.188 129.43 80.188C134.078 80.188 135.674 84.024 135.646 88.084H124.614C124.698 91.332 126.266 93.88 129.57 93.88C131.978 93.88 133.238 92.592 133.798 90.632H135.478C134.862 93.488 132.818 95.364 129.57 95.364ZM124.642 86.712H133.826C133.742 83.856 132.398 81.616 129.43 81.616C126.49 81.616 124.95 83.828 124.642 86.712ZM150.744 95.392C144.892 95.392 141.56 90.996 141.56 85.004C141.56 79.096 144.948 74.588 151.024 74.588C155.14 74.588 158.192 76.716 158.92 80.776H156.988C156.372 77.78 154.076 76.212 151.024 76.212C145.872 76.212 143.52 80.16 143.52 85.004C143.52 89.932 146.012 93.74 150.772 93.74C155.392 93.74 157.38 90.548 157.38 87.076V86.376H150.94V84.724H159.228V95H157.912L157.52 91.808H157.436C156.4 93.432 154.44 95.392 150.744 95.392ZM168.179 93.908C171.399 93.908 173.079 91.164 173.079 87.776C173.079 84.388 171.399 81.644 168.179 81.644C164.931 81.644 163.251 84.388 163.251 87.776C163.251 91.164 164.931 93.908 168.179 93.908ZM168.179 95.364C164.007 95.364 161.459 92.088 161.459 87.776C161.459 83.464 164.007 80.188 168.179 80.188C172.351 80.188 174.843 83.464 174.843 87.776C174.843 92.088 172.351 95.364 168.179 95.364ZM183.027 95.364C178.687 95.364 176.279 92.116 176.279 87.776C176.279 83.436 178.883 80.188 182.887 80.188C187.535 80.188 189.131 84.024 189.103 88.084H178.071C178.155 91.332 179.723 93.88 183.027 93.88C185.435 93.88 186.695 92.592 187.255 90.632H188.935C188.319 93.488 186.275 95.364 183.027 95.364ZM178.099 86.712H187.283C187.199 83.856 185.855 81.616 182.887 81.616C179.947 81.616 178.407 83.828 178.099 86.712ZM196.322 95.392C192.458 95.392 190.498 93.292 190.33 90.492H192.094C192.346 92.928 194.026 93.908 196.35 93.908C198.758 93.908 200.018 92.788 200.018 91.108C200.018 89.512 199.122 88.98 196.154 88.308C193.214 87.636 190.862 86.936 190.862 84.136C190.862 81.728 192.934 80.216 195.902 80.216C199.346 80.216 200.942 81.952 201.278 84.5H199.542C199.346 82.624 198.058 81.644 195.902 81.644C193.662 81.644 192.598 82.708 192.598 84.052C192.598 85.704 193.97 86.096 196.742 86.74C199.654 87.356 201.754 88.084 201.754 91.08C201.754 93.656 199.682 95.392 196.322 95.392ZM208.434 95V74.98H210.31V83.632H221.65V74.98H223.526V95H221.65V85.2H210.31V95H208.434ZM232.765 95.364C228.425 95.364 226.017 92.116 226.017 87.776C226.017 83.436 228.621 80.188 232.625 80.188C237.273 80.188 238.869 84.024 238.841 88.084H227.809C227.893 91.332 229.461 93.88 232.765 93.88C235.173 93.88 236.433 92.592 236.993 90.632H238.673C238.057 93.488 236.013 95.364 232.765 95.364ZM227.837 86.712H237.021C236.937 83.856 235.593 81.616 232.625 81.616C229.685 81.616 228.145 83.828 227.837 86.712ZM240.992 95V80.524H242.728V83.212H242.784C243.68 81.532 245.192 80.412 247.208 80.412C247.432 80.412 247.572 80.44 247.684 80.468V82.176C246.648 82.008 245.5 82.232 244.604 82.876C243.484 83.716 242.728 85.06 242.728 86.768V95H240.992ZM254.886 95.364C250.546 95.364 248.138 92.116 248.138 87.776C248.138 83.436 250.742 80.188 254.746 80.188C259.394 80.188 260.99 84.024 260.962 88.084H249.93C250.014 91.332 251.582 93.88 254.886 93.88C257.294 93.88 258.554 92.592 259.114 90.632H260.794C260.178 93.488 258.134 95.364 254.886 95.364ZM249.958 86.712H259.142C259.058 83.856 257.714 81.616 254.746 81.616C251.806 81.616 250.266 83.828 249.958 86.712ZM98.3765 131.364C92.8045 131.364 89.3605 127.136 89.3605 121.004C89.3605 114.956 92.8045 110.56 98.4605 110.56C102.689 110.56 105.489 112.912 106.161 116.636H104.313C103.781 114.032 101.709 112.184 98.4325 112.184C93.7285 112.184 91.3205 116.076 91.3205 121.004C91.3205 126.016 93.8125 129.712 98.4045 129.712C102.269 129.712 104.369 127.024 104.677 123.72H106.497C106.385 125.68 105.629 127.64 104.425 128.956C103.025 130.524 100.925 131.364 98.3765 131.364ZM114.722 129.908C117.942 129.908 119.622 127.164 119.622 123.776C119.622 120.388 117.942 117.644 114.722 117.644C111.474 117.644 109.794 120.388 109.794 123.776C109.794 127.164 111.474 129.908 114.722 129.908ZM114.722 131.364C110.55 131.364 108.002 128.088 108.002 123.776C108.002 119.464 110.55 116.188 114.722 116.188C118.894 116.188 121.386 119.464 121.386 123.776C121.386 128.088 118.894 131.364 114.722 131.364ZM123.578 131V116.524H125.314V118.708H125.37C126.294 117.252 127.694 116.216 129.766 116.216C131.53 116.216 133.042 117.112 133.63 118.848H133.686C134.638 117.196 136.29 116.216 138.334 116.216C140.798 116.216 142.702 117.812 142.702 120.724V131H140.994V120.864C140.994 118.708 139.706 117.7 137.942 117.7C135.814 117.7 134.022 119.212 134.022 121.788V131H132.286V120.864C132.286 118.708 131.054 117.7 129.374 117.7C127.302 117.7 125.314 119.436 125.314 121.788V131H123.578ZM145.535 135.648V116.524H147.271V119.016H147.327C148.335 117.308 149.931 116.216 152.227 116.216C155.699 116.216 158.219 118.96 158.219 123.776C158.219 128.228 155.923 131.364 152.115 131.364C149.903 131.364 148.419 130.496 147.327 128.9H147.271V135.648H145.535ZM152.031 129.908C154.999 129.908 156.455 127.164 156.455 123.804C156.455 120.192 154.887 117.672 152.003 117.672C148.811 117.672 147.131 120.388 147.131 123.832C147.131 127.388 148.727 129.908 152.031 129.908ZM164.166 131.336C161.478 131.336 159.434 129.992 159.434 127.304C159.434 123.86 162.122 123.16 165.398 122.768C168.254 122.432 169.29 122.264 169.29 120.808V120.528C169.29 118.568 168.058 117.616 165.818 117.616C163.242 117.616 161.898 118.68 161.758 120.836H160.05C160.246 118.036 162.094 116.216 165.818 116.216C168.982 116.216 170.942 117.532 170.942 120.696V128.564C170.942 129.432 171.278 129.796 171.894 129.824C172.09 129.824 172.286 129.768 172.538 129.712H172.622V130.972C172.37 131.084 172.006 131.196 171.446 131.196C170.186 131.196 169.402 130.552 169.318 129.152V128.844H169.234C168.422 129.992 166.938 131.336 164.166 131.336ZM164.474 129.936C167.638 129.936 169.318 127.752 169.318 125.764V123.16C168.394 123.664 166.966 123.916 165.566 124.112C163.13 124.448 161.254 124.812 161.254 127.304C161.254 129.32 162.766 129.936 164.474 129.936ZM174.219 131V116.524H175.955V118.736H176.011C176.991 117.28 178.559 116.216 180.855 116.216C183.543 116.216 185.475 117.812 185.475 120.724V131H183.739V120.892C183.739 118.708 182.479 117.7 180.435 117.7C177.971 117.7 175.955 119.436 175.955 121.816V131H174.219ZM189.512 135.788C188.868 135.788 188.476 135.704 188.028 135.564V134.024H188.112C188.364 134.108 188.756 134.22 189.428 134.22C190.52 134.22 191.304 133.744 191.836 132.26L192.312 130.972L186.74 116.524H188.588L192.06 125.876C192.564 127.22 193.208 129.18 193.208 129.18H193.264C193.264 129.18 193.88 127.22 194.356 125.876L197.688 116.524H199.48L193.516 132.512C192.536 135.116 191.388 135.788 189.512 135.788ZM214.072 131.392C208.22 131.392 204.888 126.996 204.888 121.004C204.888 115.096 208.276 110.588 214.352 110.588C218.468 110.588 221.52 112.716 222.248 116.776H220.316C219.7 113.78 217.404 112.212 214.352 112.212C209.2 112.212 206.848 116.16 206.848 121.004C206.848 125.932 209.34 129.74 214.1 129.74C218.72 129.74 220.708 126.548 220.708 123.076V122.376H214.268V120.724H222.556V131H221.24L220.848 127.808H220.764C219.728 129.432 217.768 131.392 214.072 131.392ZM231.507 129.908C234.727 129.908 236.407 127.164 236.407 123.776C236.407 120.388 234.727 117.644 231.507 117.644C228.259 117.644 226.579 120.388 226.579 123.776C226.579 127.164 228.259 129.908 231.507 129.908ZM231.507 131.364C227.335 131.364 224.787 128.088 224.787 123.776C224.787 119.464 227.335 116.188 231.507 116.188C235.679 116.188 238.171 119.464 238.171 123.776C238.171 128.088 235.679 131.364 231.507 131.364ZM246.355 131.364C242.015 131.364 239.607 128.116 239.607 123.776C239.607 119.436 242.211 116.188 246.215 116.188C250.863 116.188 252.459 120.024 252.431 124.084H241.399C241.483 127.332 243.051 129.88 246.355 129.88C248.763 129.88 250.023 128.592 250.583 126.632H252.263C251.647 129.488 249.603 131.364 246.355 131.364ZM241.427 122.712H250.611C250.527 119.856 249.183 117.616 246.215 117.616C243.275 117.616 241.735 119.828 241.427 122.712ZM259.65 131.392C255.786 131.392 253.826 129.292 253.658 126.492H255.422C255.674 128.928 257.354 129.908 259.678 129.908C262.086 129.908 263.346 128.788 263.346 127.108C263.346 125.512 262.45 124.98 259.482 124.308C256.542 123.636 254.19 122.936 254.19 120.136C254.19 117.728 256.262 116.216 259.23 116.216C262.674 116.216 264.27 117.952 264.606 120.5H262.87C262.674 118.624 261.386 117.644 259.23 117.644C256.99 117.644 255.926 118.708 255.926 120.052C255.926 121.704 257.298 122.096 260.07 122.74C262.982 123.356 265.082 124.084 265.082 127.08C265.082 129.656 263.01 131.392 259.65 131.392ZM271.762 131V110.98H273.638V119.632H284.978V110.98H286.854V131H284.978V121.2H273.638V131H271.762ZM296.094 131.364C291.754 131.364 289.346 128.116 289.346 123.776C289.346 119.436 291.95 116.188 295.954 116.188C300.602 116.188 302.198 120.024 302.17 124.084H291.138C291.222 127.332 292.79 129.88 296.094 129.88C298.502 129.88 299.762 128.592 300.322 126.632H302.002C301.386 129.488 299.342 131.364 296.094 131.364ZM291.166 122.712H300.35C300.266 119.856 298.922 117.616 295.954 117.616C293.014 117.616 291.474 119.828 291.166 122.712ZM304.32 131V116.524H306.056V119.212H306.112C307.008 117.532 308.52 116.412 310.536 116.412C310.76 116.412 310.9 116.44 311.012 116.468V118.176C309.976 118.008 308.828 118.232 307.932 118.876C306.812 119.716 306.056 121.06 306.056 122.768V131H304.32ZM318.215 131.364C313.875 131.364 311.467 128.116 311.467 123.776C311.467 119.436 314.071 116.188 318.075 116.188C322.723 116.188 324.319 120.024 324.291 124.084H313.259C313.343 127.332 314.911 129.88 318.215 129.88C320.623 129.88 321.883 128.592 322.443 126.632H324.123C323.507 129.488 321.463 131.364 318.215 131.364ZM313.287 122.712H322.471C322.387 119.856 321.043 117.616 318.075 117.616C315.135 117.616 313.595 119.828 313.287 122.712Z" fill="white"/>
<rect y="22" width="52" height="115" fill="black"/>
<path d="M34.288 119.02C34.288 122.764 31.48 124.756 26.08 124.756C20.68 124.756 17.872 122.764 17.872 119.02C17.872 116.068 19.552 114.244 22.816 113.644L23.392 116.212C21.4 116.572 20.416 117.484 20.416 118.948C20.416 120.94 22.24 121.876 26.08 121.876C29.92 121.876 31.744 120.94 31.744 118.948C31.744 117.388 30.64 116.452 28.36 116.14L28.888 113.548C32.44 114.1 34.288 115.948 34.288 119.02ZM34.288 105.854C34.288 109.694 31.504 111.686 26.08 111.686C20.656 111.686 17.872 109.694 17.872 105.854C17.872 102.014 20.656 100.022 26.08 100.022C31.504 100.022 34.288 102.014 34.288 105.854ZM31.744 105.854C31.744 103.838 29.92 102.902 26.08 102.902C22.24 102.902 20.416 103.838 20.416 105.854C20.416 107.87 22.24 108.806 26.08 108.806C29.92 108.806 31.744 107.87 31.744 105.854ZM28.288 97.2245L25.792 97.2245L25.792 87.6245L28.288 87.6245L28.288 97.2245ZM18.16 76.5468L18.16 73.7148L34 73.7148L34 76.5468L27.112 76.5468L27.112 81.4428L34 81.4428L34 84.2748L18.16 84.2748L18.16 81.4428L24.616 81.4428L24.616 76.5468L18.16 76.5468ZM34.288 65.5652C34.288 69.4052 31.504 71.3972 26.08 71.3972C20.656 71.3972 17.872 69.4052 17.872 65.5652C17.872 61.7252 20.656 59.7332 26.08 59.7332C31.504 59.7332 34.288 61.7252 34.288 65.5652ZM31.744 65.5652C31.744 63.5492 29.92 62.6132 26.08 62.6132C22.24 62.6132 20.416 63.5492 20.416 65.5652C20.416 67.5812 22.24 68.5172 26.08 68.5172C29.92 68.5172 31.744 67.5812 31.744 65.5652ZM34.288 52.1835C34.288 55.1115 33.088 56.9355 30.544 57.8475L29.488 55.3755C30.976 54.8715 31.744 53.7435 31.744 52.1115C31.744 50.4795 30.976 49.4715 29.656 49.4715C28.6 49.4715 28.048 50.0715 27.592 51.6555L27.04 53.5755C26.296 56.1915 25 57.2955 22.648 57.2955C19.648 57.2955 17.872 55.2555 17.872 52.1115C17.872 49.5675 19 47.9115 21.304 47.0715L22.312 49.6155C21.064 50.0475 20.416 50.9595 20.416 52.2315C20.416 53.6235 21.16 54.5115 22.432 54.5115C23.464 54.5115 24.016 53.9115 24.472 52.3275L25.024 50.4075C25.768 47.7915 27.088 46.6875 29.488 46.6875C32.536 46.6875 34.288 48.7515 34.288 52.1835ZM18.16 32.9218L20.656 32.9218L20.656 37.2898L34 37.2898L34 40.1218L20.656 40.1218L20.656 44.4898L18.16 44.4898L18.16 32.9218Z" fill="white"/>
<defs>
<linearGradient id="paint0_linear_13_555" x1="543" y1="159" x2="19.2207" y2="26.8748" gradientUnits="userSpaceOnUse">
<stop stop-color="#4562FF"/>
<stop offset="1" stop-color="#1C3095"/>
</linearGradient>
</defs>
</svg>
