<svg width="405" height="50" viewBox="0 0 405 50" fill="none" xmlns="http://www.w3.org/2000/svg">
<rect width="118" height="50" fill="black"/>
<path d="M41.3086 17.16H44.1406V33H41.3086V26.112H36.4126V33H33.5806V17.16H36.4126V23.616H41.3086V17.16ZM52.2903 33.288C48.4503 33.288 46.4583 30.504 46.4583 25.08C46.4583 19.656 48.4503 16.872 52.2903 16.872C56.1303 16.872 58.1223 19.656 58.1223 25.08C58.1223 30.504 56.1303 33.288 52.2903 33.288ZM52.2903 30.744C54.3063 30.744 55.2423 28.92 55.2423 25.08C55.2423 21.24 54.3063 19.416 52.2903 19.416C50.2743 19.416 49.3383 21.24 49.3383 25.08C49.3383 28.92 50.2743 30.744 52.2903 30.744ZM65.672 33.288C62.744 33.288 60.92 32.088 60.008 29.544L62.48 28.488C62.984 29.976 64.112 30.744 65.744 30.744C67.376 30.744 68.384 29.976 68.384 28.656C68.384 27.6 67.784 27.048 66.2 26.592L64.28 26.04C61.664 25.296 60.56 24 60.56 21.648C60.56 18.648 62.6 16.872 65.744 16.872C68.288 16.872 69.944 18 70.784 20.304L68.24 21.312C67.808 20.064 66.896 19.416 65.624 19.416C64.232 19.416 63.344 20.16 63.344 21.432C63.344 22.464 63.944 23.016 65.528 23.472L67.448 24.024C70.064 24.768 71.168 26.088 71.168 28.488C71.168 31.536 69.104 33.288 65.672 33.288ZM84.9337 17.16V19.656H80.5657V33H77.7337V19.656H73.3657V17.16H84.9337Z" fill="white"/>
<rect x="118" width="287" height="50" fill="url(#paint0_linear_13_561)"/>
<path d="M150.225 34V16.125H154.65V22.6L160.8 16.125H166.05L159.2 23.3L166.45 34H161.3L156.15 26.275L154.65 27.85V34H150.225ZM172.412 34.375C168.187 34.375 165.587 31.45 165.587 27.575C165.587 23.75 168.262 20.825 172.162 20.825C173.987 20.825 175.437 21.425 176.537 22.425C178.062 23.825 178.812 26.05 178.787 28.65H169.587C169.837 30.375 170.787 31.45 172.462 31.45C173.537 31.45 174.237 30.975 174.587 30.175H178.562C178.287 31.325 177.537 32.425 176.412 33.2C175.337 33.95 174.037 34.375 172.412 34.375ZM169.612 26.225H174.662C174.512 24.7 173.562 23.725 172.237 23.725C170.687 23.725 169.887 24.7 169.612 26.225ZM180.176 34V16.125H184.301V34H180.176ZM189.654 34L185.229 21.2H189.429L191.179 26.975C191.554 28.25 191.879 29.55 191.879 29.55H191.929C191.929 29.55 192.254 28.25 192.629 26.975L194.404 21.2H198.479L194.054 34H189.654ZM199.389 34V21.2H203.464V34H199.389ZM199.389 19.425V16.125H203.464V19.425H199.389ZM205.419 34V21.2H209.344V22.95H209.419C210.369 21.575 211.594 20.825 213.369 20.825C216.169 20.825 217.819 22.825 217.819 25.675V34H213.744V26.5C213.744 25.15 213.069 24.225 211.744 24.225C210.394 24.225 209.494 25.35 209.494 26.925V34H205.419ZM230.934 34.425C226.184 34.425 223.059 32.325 222.959 28.375H227.409C227.609 30.175 228.784 30.925 230.909 30.925C232.359 30.925 233.784 30.4 233.784 29.05C233.784 27.625 232.334 27.325 229.884 26.725C226.784 26 223.509 25.05 223.509 21.3C223.509 17.475 226.609 15.8 230.609 15.8C234.484 15.8 237.484 17.55 237.659 21.3H233.334C233.159 19.925 232.109 19.15 230.459 19.15C228.909 19.15 227.884 19.825 227.884 20.825C227.884 22.075 229.259 22.375 231.934 22.975C235.259 23.75 238.259 24.775 238.259 28.6C238.259 32.35 235.059 34.425 230.934 34.425ZM239.819 38.225V21.2H243.719V22.75H243.794C244.669 21.6 245.919 20.825 247.669 20.825C251.069 20.825 253.144 23.75 253.144 27.6C253.144 31.75 250.919 34.4 247.569 34.4C245.919 34.4 244.744 33.75 243.944 32.675H243.894V38.225H239.819ZM246.519 31.25C248.069 31.25 249.019 29.925 249.019 27.75C249.019 25.55 248.194 24.1 246.444 24.1C244.669 24.1 243.769 25.675 243.769 27.75C243.769 29.825 244.769 31.25 246.519 31.25ZM258.291 34.325C255.741 34.325 253.916 32.95 253.916 30.425C253.916 27.6 256.166 26.75 258.816 26.4C261.216 26.1 262.066 25.85 262.066 24.975C262.066 24.15 261.541 23.6 260.316 23.6C259.016 23.6 258.366 24.175 258.241 25.25H254.491C254.591 22.875 256.416 20.85 260.291 20.85C262.216 20.85 263.516 21.2 264.441 21.9C265.541 22.7 266.066 23.95 266.066 25.55V32C266.066 33.025 266.166 33.6 266.516 33.825V34H262.566C262.366 33.725 262.241 33.225 262.141 32.575H262.091C261.341 33.65 260.216 34.325 258.291 34.325ZM259.591 31.725C261.116 31.725 262.166 30.8 262.166 29.425V27.9C261.641 28.175 260.891 28.375 260.066 28.575C258.491 28.925 257.841 29.325 257.841 30.3C257.841 31.325 258.591 31.725 259.591 31.725ZM268.041 34V21.2H271.941V23.2H272.016C272.916 21.675 273.966 21 275.516 21C275.891 21 276.141 21.025 276.316 21.1V24.6H276.216C273.716 24.25 272.116 25.475 272.116 28.25V34H268.041ZM277.612 34V16.125H281.637V25.525L285.437 21.2H290.137L285.637 26L290.662 34H285.937L282.862 28.775L281.637 30.075V34H277.612ZM296.563 34.4C292.813 34.4 290.463 32.675 290.338 29.85H294.188C294.338 31.125 295.188 31.75 296.538 31.75C297.763 31.75 298.538 31.3 298.538 30.475C298.538 29.325 296.988 29.2 295.288 28.9C293.063 28.525 290.688 27.925 290.688 24.925C290.688 22.225 293.188 20.825 296.213 20.825C299.838 20.825 301.788 22.4 301.988 24.925H298.238C298.088 23.775 297.313 23.425 296.188 23.425C295.188 23.425 294.413 23.8 294.413 24.6C294.413 25.5 295.863 25.625 297.488 25.925C299.738 26.3 302.388 26.875 302.388 30.15C302.388 32.95 299.913 34.4 296.563 34.4Z" fill="white"/>
<defs>
<linearGradient id="paint0_linear_13_561" x1="405" y1="50" x2="118" y2="7.25135e-06" gradientUnits="userSpaceOnUse">
<stop stop-color="#4562FF"/>
<stop offset="1" stop-color="#1C3198"/>
</linearGradient>
</defs>
</svg>
