<svg width="543" height="159" viewBox="0 0 543 159" fill="none" xmlns="http://www.w3.org/2000/svg">
<rect x="26" width="517" height="159" fill="url(#paint0_linear_13_506)"/>
<path d="M98.058 59V28.97H105.492V39.848L115.824 28.97H124.644L113.136 41.024L125.316 59H116.664L108.012 46.022L105.492 48.668V59H98.058ZM135.331 59.63C128.233 59.63 123.865 54.716 123.865 48.206C123.865 41.78 128.359 36.866 134.911 36.866C137.977 36.866 140.413 37.874 142.261 39.554C144.823 41.906 146.083 45.644 146.041 50.012H130.585C131.005 52.91 132.601 54.716 135.415 54.716C137.221 54.716 138.397 53.918 138.985 52.574H145.663C145.201 54.506 143.941 56.354 142.051 57.656C140.245 58.916 138.061 59.63 135.331 59.63ZM130.627 45.938H139.111C138.859 43.376 137.263 41.738 135.037 41.738C132.433 41.738 131.089 43.376 130.627 45.938ZM148.375 59V28.97H155.305V59H148.375ZM164.298 59L156.864 37.496H163.92L166.86 47.198C167.49 49.34 168.036 51.524 168.036 51.524H168.12C168.12 51.524 168.666 49.34 169.296 47.198L172.278 37.496H179.124L171.69 59H164.298ZM180.654 59V37.496H187.5V59H180.654ZM180.654 34.514V28.97H187.5V34.514H180.654ZM190.784 59V37.496H197.378V40.436H197.504C199.1 38.126 201.158 36.866 204.14 36.866C208.844 36.866 211.616 40.226 211.616 45.014V59H204.77V46.4C204.77 44.132 203.636 42.578 201.41 42.578C199.142 42.578 197.63 44.468 197.63 47.114V59H190.784ZM233.649 59.714C225.669 59.714 220.419 56.186 220.251 49.55H227.727C228.063 52.574 230.037 53.834 233.607 53.834C236.043 53.834 238.437 52.952 238.437 50.684C238.437 48.29 236.001 47.786 231.885 46.778C226.677 45.56 221.175 43.964 221.175 37.664C221.175 31.238 226.383 28.424 233.103 28.424C239.613 28.424 244.653 31.364 244.947 37.664H237.681C237.387 35.354 235.623 34.052 232.851 34.052C230.247 34.052 228.525 35.186 228.525 36.866C228.525 38.966 230.835 39.47 235.329 40.478C240.915 41.78 245.955 43.502 245.955 49.928C245.955 56.228 240.579 59.714 233.649 59.714ZM248.576 66.098V37.496H255.128V40.1H255.254C256.724 38.168 258.824 36.866 261.764 36.866C267.476 36.866 270.962 41.78 270.962 48.248C270.962 55.22 267.224 59.672 261.596 59.672C258.824 59.672 256.85 58.58 255.506 56.774H255.422V66.098H248.576ZM259.832 54.38C262.436 54.38 264.032 52.154 264.032 48.5C264.032 44.804 262.646 42.368 259.706 42.368C256.724 42.368 255.212 45.014 255.212 48.5C255.212 51.986 256.892 54.38 259.832 54.38ZM279.609 59.546C275.325 59.546 272.259 57.236 272.259 52.994C272.259 48.248 276.039 46.82 280.491 46.232C284.523 45.728 285.951 45.308 285.951 43.838C285.951 42.452 285.069 41.528 283.011 41.528C280.827 41.528 279.735 42.494 279.525 44.3H273.225C273.393 40.31 276.459 36.908 282.969 36.908C286.203 36.908 288.387 37.496 289.941 38.672C291.789 40.016 292.671 42.116 292.671 44.804V55.64C292.671 57.362 292.839 58.328 293.427 58.706V59H286.791C286.455 58.538 286.245 57.698 286.077 56.606H285.993C284.733 58.412 282.843 59.546 279.609 59.546ZM281.793 55.178C284.355 55.178 286.119 53.624 286.119 51.314V48.752C285.237 49.214 283.977 49.55 282.591 49.886C279.945 50.474 278.853 51.146 278.853 52.784C278.853 54.506 280.113 55.178 281.793 55.178ZM295.99 59V37.496H302.542V40.856H302.668C304.18 38.294 305.944 37.16 308.548 37.16C309.178 37.16 309.598 37.202 309.892 37.328V43.208H309.724C305.524 42.62 302.836 44.678 302.836 49.34V59H295.99ZM312.068 59V28.97H318.83V44.762L325.214 37.496H333.11L325.55 45.56L333.992 59H326.054L320.888 50.222L318.83 52.406V59H312.068ZM343.905 59.672C337.605 59.672 333.657 56.774 333.447 52.028H339.915C340.167 54.17 341.595 55.22 343.863 55.22C345.921 55.22 347.223 54.464 347.223 53.078C347.223 51.146 344.619 50.936 341.763 50.432C338.025 49.802 334.035 48.794 334.035 43.754C334.035 39.218 338.235 36.866 343.317 36.866C349.407 36.866 352.683 39.512 353.019 43.754H346.719C346.467 41.822 345.165 41.234 343.275 41.234C341.595 41.234 340.293 41.864 340.293 43.208C340.293 44.72 342.729 44.93 345.459 45.434C349.239 46.064 353.691 47.03 353.691 52.532C353.691 57.236 349.533 59.672 343.905 59.672ZM97.792 95V74.98H99.668V83.632H111.008V74.98H112.884V95H111.008V85.2H99.668V95H97.792ZM122.124 95.364C117.784 95.364 115.376 92.116 115.376 87.776C115.376 83.436 117.98 80.188 121.984 80.188C126.632 80.188 128.228 84.024 128.2 88.084H117.168C117.252 91.332 118.82 93.88 122.124 93.88C124.532 93.88 125.792 92.592 126.352 90.632H128.032C127.416 93.488 125.372 95.364 122.124 95.364ZM117.196 86.712H126.38C126.296 83.856 124.952 81.616 121.984 81.616C119.044 81.616 117.504 83.828 117.196 86.712ZM134.271 95.336C131.583 95.336 129.539 93.992 129.539 91.304C129.539 87.86 132.227 87.16 135.503 86.768C138.359 86.432 139.395 86.264 139.395 84.808V84.528C139.395 82.568 138.163 81.616 135.923 81.616C133.347 81.616 132.003 82.68 131.863 84.836H130.155C130.351 82.036 132.199 80.216 135.923 80.216C139.087 80.216 141.047 81.532 141.047 84.696V92.564C141.047 93.432 141.383 93.796 141.999 93.824C142.195 93.824 142.391 93.768 142.643 93.712H142.727V94.972C142.475 95.084 142.111 95.196 141.551 95.196C140.291 95.196 139.507 94.552 139.423 93.152V92.844H139.339C138.527 93.992 137.043 95.336 134.271 95.336ZM134.579 93.936C137.743 93.936 139.423 91.752 139.423 89.764V87.16C138.499 87.664 137.071 87.916 135.671 88.112C133.235 88.448 131.359 88.812 131.359 91.304C131.359 93.32 132.871 93.936 134.579 93.936ZM149.674 95.392C145.782 95.392 143.43 92.256 143.43 87.804C143.43 82.988 146.174 80.216 149.618 80.216C151.83 80.216 153.454 81.252 154.378 82.932H154.434V74.98H156.17V95H154.434V92.844H154.378C153.314 94.496 151.858 95.392 149.674 95.392ZM149.73 93.936C152.894 93.936 154.574 91.444 154.574 87.832C154.574 84.276 152.866 81.672 149.73 81.672C146.874 81.672 145.222 84.22 145.222 87.832C145.222 91.22 146.678 93.936 149.73 93.936ZM169.264 93.908C172.484 93.908 174.164 91.164 174.164 87.776C174.164 84.388 172.484 81.644 169.264 81.644C166.016 81.644 164.336 84.388 164.336 87.776C164.336 91.164 166.016 93.908 169.264 93.908ZM169.264 95.364C165.092 95.364 162.544 92.088 162.544 87.776C162.544 83.464 165.092 80.188 169.264 80.188C173.436 80.188 175.928 83.464 175.928 87.776C175.928 92.088 173.436 95.364 169.264 95.364ZM178.802 95V81.952H176.702V80.524H178.802V77.948C178.802 75.792 179.978 74.84 182.19 74.84C182.386 74.84 183.058 74.868 183.17 74.868V76.352H182.414C180.958 76.352 180.51 76.912 180.51 78.004V80.524H183.198V81.952H180.51V95H178.802ZM198.176 95.392C192.324 95.392 188.992 90.996 188.992 85.004C188.992 79.096 192.38 74.588 198.456 74.588C202.572 74.588 205.624 76.716 206.352 80.776H204.42C203.804 77.78 201.508 76.212 198.456 76.212C193.304 76.212 190.952 80.16 190.952 85.004C190.952 89.932 193.444 93.74 198.204 93.74C202.824 93.74 204.812 90.548 204.812 87.076V86.376H198.372V84.724H206.66V95H205.344L204.952 91.808H204.868C203.832 93.432 201.872 95.392 198.176 95.392ZM209.647 95V80.524H211.383V83.212H211.439C212.335 81.532 213.847 80.412 215.863 80.412C216.087 80.412 216.227 80.44 216.339 80.468V82.176C215.303 82.008 214.155 82.232 213.259 82.876C212.139 83.716 211.383 85.06 211.383 86.768V95H209.647ZM223.514 93.908C226.734 93.908 228.414 91.164 228.414 87.776C228.414 84.388 226.734 81.644 223.514 81.644C220.266 81.644 218.586 84.388 218.586 87.776C218.586 91.164 220.266 93.908 223.514 93.908ZM223.514 95.364C219.342 95.364 216.794 92.088 216.794 87.776C216.794 83.464 219.342 80.188 223.514 80.188C227.686 80.188 230.178 83.464 230.178 87.776C230.178 92.088 227.686 95.364 223.514 95.364ZM235.096 95L230.784 80.524H232.604L235.124 89.484C235.516 90.912 236.048 93.264 236.048 93.264H236.104C236.104 93.264 236.664 90.94 237.028 89.624L239.492 80.524H241.368L243.748 89.624C244.084 90.94 244.616 93.264 244.616 93.264H244.672C244.672 93.264 245.26 90.884 245.68 89.484L248.368 80.524H250.132L245.568 95H243.664L241.172 85.76C240.808 84.388 240.416 82.484 240.416 82.484H240.36C240.36 82.484 239.968 84.388 239.604 85.76L237.056 95H235.096ZM256.116 95.112C254.464 95.112 253.344 94.356 253.344 92.508V81.952H251.16V80.524H253.344V76.072H255.08V80.524H257.768V81.952H255.08V92.228C255.08 93.264 255.556 93.6 256.48 93.6C256.872 93.6 257.376 93.488 257.628 93.376H257.712V94.86C257.236 95.028 256.732 95.112 256.116 95.112ZM260.126 95V74.98H261.862V82.736H261.918C262.898 81.28 264.466 80.216 266.762 80.216C269.45 80.216 271.382 81.812 271.382 84.724V95H269.646V84.892C269.646 82.708 268.386 81.7 266.342 81.7C263.878 81.7 261.862 83.436 261.862 85.816V95H260.126ZM103.308 131V112.66H96.532V110.98H111.932V112.66H105.184V131H103.308ZM113.864 131V110.98H115.6V118.736H115.656C116.636 117.28 118.204 116.216 120.5 116.216C123.188 116.216 125.12 117.812 125.12 120.724V131H123.384V120.892C123.384 118.708 122.124 117.7 120.08 117.7C117.616 117.7 115.6 119.436 115.6 121.816V131H113.864ZM133.909 131.364C129.569 131.364 127.161 128.116 127.161 123.776C127.161 119.436 129.765 116.188 133.769 116.188C138.417 116.188 140.013 120.024 139.985 124.084H128.953C129.037 127.332 130.605 129.88 133.909 129.88C136.317 129.88 137.577 128.592 138.137 126.632H139.817C139.201 129.488 137.157 131.364 133.909 131.364ZM128.981 122.712H138.165C138.081 119.856 136.737 117.616 133.769 117.616C130.829 117.616 129.289 119.828 128.981 122.712ZM146.683 131V110.98H154.999C156.791 110.98 158.247 111.484 159.255 112.436C160.179 113.276 160.711 114.508 160.711 116.02C160.711 118.288 159.675 119.66 157.659 120.36V120.444C159.955 121.088 161.551 122.712 161.551 125.372C161.551 126.996 161.047 128.312 160.095 129.292C159.059 130.356 157.435 131 155.363 131H146.683ZM148.559 129.292H155.251C156.791 129.292 157.911 128.844 158.639 128.144C159.283 127.5 159.647 126.576 159.647 125.4C159.647 122.852 157.883 121.396 155.251 121.396H148.559V129.292ZM148.559 119.772H154.971C157.407 119.772 158.807 118.344 158.807 116.16C158.807 113.892 157.351 112.632 155.027 112.632H148.559V119.772ZM163.876 131V110.98H165.612V131H163.876ZM174.568 129.908C177.788 129.908 179.468 127.164 179.468 123.776C179.468 120.388 177.788 117.644 174.568 117.644C171.32 117.644 169.64 120.388 169.64 123.776C169.64 127.164 171.32 129.908 174.568 129.908ZM174.568 131.364C170.396 131.364 167.848 128.088 167.848 123.776C167.848 119.464 170.396 116.188 174.568 116.188C178.74 116.188 181.232 119.464 181.232 123.776C181.232 128.088 178.74 131.364 174.568 131.364ZM189.249 131.364C185.021 131.364 182.669 128.088 182.669 123.776C182.669 119.464 185.077 116.188 189.277 116.188C192.469 116.188 194.625 117.924 195.101 120.892H193.365C192.945 118.736 191.517 117.644 189.277 117.644C185.945 117.644 184.461 120.416 184.461 123.776C184.461 127.136 185.973 129.88 189.249 129.88C191.713 129.88 193.253 128.34 193.533 126.016H195.185C194.849 129.292 192.693 131.364 189.249 131.364ZM197.179 131V110.98H198.915V123.496L206.111 116.524H208.323L202.779 121.76L208.995 131H206.979L201.575 122.88L198.915 125.428V131H197.179Z" fill="white"/>
<rect y="22" width="52" height="115" fill="black"/>
<path d="M18.16 96.6914L18.16 93.8594L34 93.8594L34 96.6914L27.112 96.6914L27.112 101.587L34 101.587L34 104.419L18.16 104.419L18.16 101.587L24.616 101.587L24.616 96.6914L18.16 96.6914ZM34.288 85.7097C34.288 89.5497 31.504 91.5417 26.08 91.5417C20.656 91.5417 17.872 89.5497 17.872 85.7097C17.872 81.8697 20.656 79.8777 26.08 79.8777C31.504 79.8777 34.288 81.8697 34.288 85.7097ZM31.744 85.7097C31.744 83.6937 29.92 82.7577 26.08 82.7577C22.24 82.7577 20.416 83.6937 20.416 85.7097C20.416 87.7257 22.24 88.6617 26.08 88.6617C29.92 88.6617 31.744 87.7257 31.744 85.7097ZM34.288 72.328C34.288 75.256 33.088 77.08 30.544 77.992L29.488 75.52C30.976 75.016 31.744 73.888 31.744 72.256C31.744 70.624 30.976 69.616 29.656 69.616C28.6 69.616 28.048 70.216 27.592 71.8L27.04 73.72C26.296 76.336 25 77.44 22.648 77.44C19.648 77.44 17.872 75.4 17.872 72.256C17.872 69.712 19 68.056 21.304 67.216L22.312 69.76C21.064 70.192 20.416 71.104 20.416 72.376C20.416 73.768 21.16 74.656 22.432 74.656C23.464 74.656 24.016 74.056 24.472 72.472L25.024 70.552C25.768 67.936 27.088 66.832 29.488 66.832C32.536 66.832 34.288 68.896 34.288 72.328ZM18.16 53.0663L20.656 53.0663L20.656 57.4343L34 57.4343L34 60.2663L20.656 60.2663L20.656 64.6343L18.16 64.6343L18.16 53.0663Z" fill="white"/>
<defs>
<linearGradient id="paint0_linear_13_506" x1="543" y1="159" x2="19.2207" y2="26.8748" gradientUnits="userSpaceOnUse">
<stop stop-color="#4562FF"/>
<stop offset="1" stop-color="#1C3095"/>
</linearGradient>
</defs>
</svg>
