<svg width="405" height="50" viewBox="0 0 405 50" fill="none" xmlns="http://www.w3.org/2000/svg">
<rect width="118" height="50" fill="black"/>
<path d="M18.9801 33.288C15.2361 33.288 13.2441 30.48 13.2441 25.08C13.2441 19.68 15.2361 16.872 18.9801 16.872C21.9321 16.872 23.7561 18.552 24.3561 21.816L21.7881 22.392C21.4281 20.4 20.5161 19.416 19.0521 19.416C17.0601 19.416 16.1241 21.24 16.1241 25.08C16.1241 28.92 17.0601 30.744 19.0521 30.744C20.6121 30.744 21.5481 29.64 21.8601 27.36L24.4521 27.888C23.9001 31.44 22.0521 33.288 18.9801 33.288ZM32.1458 33.288C28.3058 33.288 26.3138 30.504 26.3138 25.08C26.3138 19.656 28.3058 16.872 32.1458 16.872C35.9858 16.872 37.9778 19.656 37.9778 25.08C37.9778 30.504 35.9858 33.288 32.1458 33.288ZM32.1458 30.744C34.1618 30.744 35.0978 28.92 35.0978 25.08C35.0978 21.24 34.1618 19.416 32.1458 19.416C30.1298 19.416 29.1938 21.24 29.1938 25.08C29.1938 28.92 30.1298 30.744 32.1458 30.744ZM40.7755 27.288V24.792H50.3755V27.288H40.7755ZM61.4532 17.16H64.2852V33H61.4532V26.112H56.5572V33H53.7252V17.16H56.5572V23.616H61.4532V17.16ZM72.4348 33.288C68.5948 33.288 66.6028 30.504 66.6028 25.08C66.6028 19.656 68.5948 16.872 72.4348 16.872C76.2748 16.872 78.2668 19.656 78.2668 25.08C78.2668 30.504 76.2748 33.288 72.4348 33.288ZM72.4348 30.744C74.4508 30.744 75.3868 28.92 75.3868 25.08C75.3868 21.24 74.4508 19.416 72.4348 19.416C70.4188 19.416 69.4828 21.24 69.4828 25.08C69.4828 28.92 70.4188 30.744 72.4348 30.744ZM85.8165 33.288C82.8885 33.288 81.0645 32.088 80.1525 29.544L82.6245 28.488C83.1285 29.976 84.2565 30.744 85.8885 30.744C87.5205 30.744 88.5285 29.976 88.5285 28.656C88.5285 27.6 87.9285 27.048 86.3445 26.592L84.4245 26.04C81.8085 25.296 80.7045 24 80.7045 21.648C80.7045 18.648 82.7445 16.872 85.8885 16.872C88.4325 16.872 90.0885 18 90.9285 20.304L88.3845 21.312C87.9525 20.064 87.0405 19.416 85.7685 19.416C84.3765 19.416 83.4885 20.16 83.4885 21.432C83.4885 22.464 84.0885 23.016 85.6725 23.472L87.5925 24.024C90.2085 24.768 91.3125 26.088 91.3125 28.488C91.3125 31.536 89.2485 33.288 85.8165 33.288ZM105.078 17.16V19.656H100.71V33H97.8782V19.656H93.5102V17.16H105.078Z" fill="white"/>
<rect x="118" width="287" height="50" fill="url(#paint0_linear_13_518)"/>
<path d="M150.225 34V16.125H163.525V19.85H154.65V23.475H162.075V27.05H154.65V34H150.225ZM165.014 34V21.2H169.089V34H165.014ZM165.014 19.425V16.125H169.089V19.425H165.014ZM171.044 34V21.2H174.944V23.2H175.019C175.919 21.675 176.969 21 178.519 21C178.894 21 179.144 21.025 179.319 21.1V24.6H179.219C176.719 24.25 175.119 25.475 175.119 28.25V34H171.044ZM186.065 34.4C182.315 34.4 179.965 32.675 179.84 29.85H183.69C183.84 31.125 184.69 31.75 186.04 31.75C187.265 31.75 188.04 31.3 188.04 30.475C188.04 29.325 186.49 29.2 184.79 28.9C182.565 28.525 180.19 27.925 180.19 24.925C180.19 22.225 182.69 20.825 185.715 20.825C189.34 20.825 191.29 22.4 191.49 24.925H187.74C187.59 23.775 186.815 23.425 185.69 23.425C184.69 23.425 183.915 23.8 183.915 24.6C183.915 25.5 185.365 25.625 186.99 25.925C189.24 26.3 191.89 26.875 191.89 30.15C191.89 32.95 189.415 34.4 186.065 34.4ZM197.921 34.15C195.546 34.15 193.846 33.375 193.846 30.625V23.75H192.146V21.2H193.846V17.15H197.821V21.2H200.146V23.75H197.821V29.75C197.821 30.75 198.371 31 199.246 31C199.596 31 199.996 30.975 200.146 30.975V33.95C199.796 34.05 199.021 34.15 197.921 34.15ZM201.861 34V16.125H206.311L211.611 25.1C211.886 25.6 212.836 27.375 212.836 27.375H212.886C212.886 27.375 212.836 25.225 212.836 24.6V16.125H217.161V34H212.711L207.461 25.15C207.161 24.675 206.186 22.75 206.186 22.75H206.136C206.136 22.75 206.186 25.05 206.186 25.675V34H201.861ZM223.135 34.325C220.585 34.325 218.76 32.95 218.76 30.425C218.76 27.6 221.01 26.75 223.66 26.4C226.06 26.1 226.91 25.85 226.91 24.975C226.91 24.15 226.385 23.6 225.16 23.6C223.86 23.6 223.21 24.175 223.085 25.25H219.335C219.435 22.875 221.26 20.85 225.135 20.85C227.06 20.85 228.36 21.2 229.285 21.9C230.385 22.7 230.91 23.95 230.91 25.55V32C230.91 33.025 231.01 33.6 231.36 33.825V34H227.41C227.21 33.725 227.085 33.225 226.985 32.575H226.935C226.185 33.65 225.06 34.325 223.135 34.325ZM224.435 31.725C225.96 31.725 227.01 30.8 227.01 29.425V27.9C226.485 28.175 225.735 28.375 224.91 28.575C223.335 28.925 222.685 29.325 222.685 30.3C222.685 31.325 223.435 31.725 224.435 31.725ZM232.885 34V21.2H236.785V23.025H236.86C237.66 21.7 238.885 20.825 240.735 20.825C242.41 20.825 243.685 21.7 244.335 23.075H244.385C245.385 21.525 246.76 20.825 248.41 20.825C251.31 20.825 252.76 22.8 252.76 25.675V34H248.685V26.4C248.685 25.025 248.11 24.225 246.885 24.225C245.585 24.225 244.86 25.3 244.86 26.825V34H240.785V26.4C240.785 25.025 240.21 24.225 238.985 24.225C237.71 24.225 236.96 25.3 236.96 26.825V34H232.885ZM260.864 34.375C256.639 34.375 254.039 31.45 254.039 27.575C254.039 23.75 256.714 20.825 260.614 20.825C262.439 20.825 263.889 21.425 264.989 22.425C266.514 23.825 267.264 26.05 267.239 28.65H258.039C258.289 30.375 259.239 31.45 260.914 31.45C261.989 31.45 262.689 30.975 263.039 30.175H267.014C266.739 31.325 265.989 32.425 264.864 33.2C263.789 33.95 262.489 34.375 260.864 34.375ZM258.064 26.225H263.114C262.964 24.7 262.014 23.725 260.689 23.725C259.139 23.725 258.339 24.7 258.064 26.225ZM272.735 34V16.125H277.16V30.25H285.185V34H272.735ZM290.64 34.325C288.09 34.325 286.265 32.95 286.265 30.425C286.265 27.6 288.515 26.75 291.165 26.4C293.565 26.1 294.415 25.85 294.415 24.975C294.415 24.15 293.89 23.6 292.665 23.6C291.365 23.6 290.715 24.175 290.59 25.25H286.84C286.94 22.875 288.765 20.85 292.64 20.85C294.565 20.85 295.865 21.2 296.79 21.9C297.89 22.7 298.415 23.95 298.415 25.55V32C298.415 33.025 298.515 33.6 298.865 33.825V34H294.915C294.715 33.725 294.59 33.225 294.49 32.575H294.44C293.69 33.65 292.565 34.325 290.64 34.325ZM291.94 31.725C293.465 31.725 294.515 30.8 294.515 29.425V27.9C293.99 28.175 293.24 28.375 292.415 28.575C290.84 28.925 290.19 29.325 290.19 30.3C290.19 31.325 290.94 31.725 291.94 31.725ZM305.84 34.4C302.09 34.4 299.74 32.675 299.615 29.85H303.465C303.615 31.125 304.465 31.75 305.815 31.75C307.04 31.75 307.815 31.3 307.815 30.475C307.815 29.325 306.265 29.2 304.565 28.9C302.34 28.525 299.965 27.925 299.965 24.925C299.965 22.225 302.465 20.825 305.49 20.825C309.115 20.825 311.065 22.4 311.265 24.925H307.515C307.365 23.775 306.59 23.425 305.465 23.425C304.465 23.425 303.69 23.8 303.69 24.6C303.69 25.5 305.14 25.625 306.765 25.925C309.015 26.3 311.665 26.875 311.665 30.15C311.665 32.95 309.19 34.4 305.84 34.4ZM317.696 34.15C315.321 34.15 313.621 33.375 313.621 30.625V23.75H311.921V21.2H313.621V17.15H317.596V21.2H319.921V23.75H317.596V29.75C317.596 30.75 318.146 31 319.021 31C319.371 31 319.771 30.975 319.921 30.975V33.95C319.571 34.05 318.796 34.15 317.696 34.15ZM321.636 34V16.125H326.086L331.386 25.1C331.661 25.6 332.611 27.375 332.611 27.375H332.661C332.661 27.375 332.611 25.225 332.611 24.6V16.125H336.936V34H332.486L327.236 25.15C326.936 24.675 325.961 22.75 325.961 22.75H325.911C325.911 22.75 325.961 25.05 325.961 25.675V34H321.636ZM342.91 34.325C340.36 34.325 338.535 32.95 338.535 30.425C338.535 27.6 340.785 26.75 343.435 26.4C345.835 26.1 346.685 25.85 346.685 24.975C346.685 24.15 346.16 23.6 344.935 23.6C343.635 23.6 342.985 24.175 342.86 25.25H339.11C339.21 22.875 341.035 20.85 344.91 20.85C346.835 20.85 348.135 21.2 349.06 21.9C350.16 22.7 350.685 23.95 350.685 25.55V32C350.685 33.025 350.785 33.6 351.135 33.825V34H347.185C346.985 33.725 346.86 33.225 346.76 32.575H346.71C345.96 33.65 344.835 34.325 342.91 34.325ZM344.21 31.725C345.735 31.725 346.785 30.8 346.785 29.425V27.9C346.26 28.175 345.51 28.375 344.685 28.575C343.11 28.925 342.46 29.325 342.46 30.3C342.46 31.325 343.21 31.725 344.21 31.725ZM352.661 34V21.2H356.561V23.025H356.636C357.436 21.7 358.661 20.825 360.511 20.825C362.186 20.825 363.461 21.7 364.111 23.075H364.161C365.161 21.525 366.536 20.825 368.186 20.825C371.086 20.825 372.536 22.8 372.536 25.675V34H368.461V26.4C368.461 25.025 367.886 24.225 366.661 24.225C365.361 24.225 364.636 25.3 364.636 26.825V34H360.561V26.4C360.561 25.025 359.986 24.225 358.761 24.225C357.486 24.225 356.736 25.3 356.736 26.825V34H352.661ZM380.639 34.375C376.414 34.375 373.814 31.45 373.814 27.575C373.814 23.75 376.489 20.825 380.389 20.825C382.214 20.825 383.664 21.425 384.764 22.425C386.289 23.825 387.039 26.05 387.014 28.65H377.814C378.064 30.375 379.014 31.45 380.689 31.45C381.764 31.45 382.464 30.975 382.814 30.175H386.789C386.514 31.325 385.764 32.425 384.639 33.2C383.564 33.95 382.264 34.375 380.639 34.375ZM377.839 26.225H382.889C382.739 24.7 381.789 23.725 380.464 23.725C378.914 23.725 378.114 24.7 377.839 26.225Z" fill="white"/>
<defs>
<linearGradient id="paint0_linear_13_518" x1="405" y1="50" x2="118" y2="7.25135e-06" gradientUnits="userSpaceOnUse">
<stop stop-color="#4562FF"/>
<stop offset="1" stop-color="#1C3198"/>
</linearGradient>
</defs>
</svg>
