<svg width="2463" height="533" viewBox="0 0 2463 533" fill="none" xmlns="http://www.w3.org/2000/svg">
<g clip-path="url(#clip0_2124_2449)">
<path d="M0 533V0H172.293V63.8397H78.917V469.161H172.293V533H0Z" fill="white"/>
<path d="M2463 533V0H2290.71V63.8397H2384.08V469.161H2290.71V533H2463Z" fill="white"/>
<path d="M319.242 262.581V60.8245H410.025C434.553 60.8245 452.597 67.5967 465.002 79.4481C477.971 91.5817 485.301 108.794 485.301 129.111C485.301 167.769 458.517 195.14 417.073 195.14H369.99V262.581H319.242ZM369.99 155.636H406.923C424.967 155.636 435.117 144.913 435.117 128.829C435.117 112.745 424.685 102.869 406.923 102.869H369.99V155.636ZM508.799 262.581V60.8245H605.22C645.255 60.8245 675.704 81.4234 675.704 118.953C675.704 142.373 664.144 159.586 640.744 167.769V168.616C658.224 174.542 667.246 185.546 670.065 205.581C674.294 232.106 671.475 257.501 678.523 260.041V262.581H630.03C624.674 259.477 625.52 235.774 622.418 215.739C619.881 197.116 610.295 186.957 588.868 186.957H558.701V262.581H508.799ZM558.701 149.992H596.199C615.934 149.992 626.083 140.68 626.083 125.443C626.083 110.77 616.498 100.329 597.326 100.329H558.701V149.992ZM703.584 262.581V60.8245H856.392V102.022H753.486V138.141H841.731V177.081H753.486V220.254H858.083V262.581H703.584ZM936.159 220.536H965.48C998.184 220.536 1015.1 199.937 1015.1 162.972C1015.1 126.289 997.339 102.587 966.044 102.587H936.159V220.536ZM886.257 262.581V60.8245H972.247C1028.07 60.8245 1065.57 101.176 1065.57 162.972C1065.57 198.527 1053.16 227.026 1030.61 244.239C1014.82 256.091 994.519 262.581 969.145 262.581H886.257ZM1090.96 262.581V60.8245H1140.87V262.581H1090.96ZM1265.58 267.095C1206.38 267.095 1166.06 222.794 1166.06 162.408C1166.06 102.304 1205.25 56.874 1265.3 56.874C1288.7 56.874 1308.44 63.6463 1322.81 74.6511C1340.29 87.9134 1350.44 107.666 1352.98 130.24H1303.08C1300.54 112.181 1286.45 98.354 1265.02 98.354C1232.31 98.354 1216.81 125.725 1216.81 162.408C1216.81 199.373 1235.42 226.18 1265.3 226.18C1287.57 226.18 1302.23 212.071 1304.49 192.601H1354.39C1352.98 212.635 1343.96 230.977 1330.15 244.239C1314.64 259.195 1294.06 267.095 1265.58 267.095ZM1423.32 262.581V103.151H1364.68V60.8245H1532.43V103.151H1473.23V262.581H1423.32ZM1556.94 262.581V60.8245H1606.84V262.581H1556.94ZM1731.84 226.744C1764.54 226.744 1780.61 198.809 1780.61 162.126C1780.61 125.443 1764.54 97.2253 1731.84 97.2253C1699.41 97.2253 1682.78 125.443 1682.78 162.126C1682.78 198.809 1699.41 226.744 1731.84 226.744ZM1731.56 267.378C1670.66 267.378 1632.03 222.512 1632.03 162.126C1632.03 101.74 1670.66 56.874 1731.56 56.874C1792.73 56.874 1831.36 101.74 1831.36 162.126C1831.36 222.512 1792.73 267.378 1731.56 267.378ZM1856.47 262.581V60.8245H1906.66L1966.43 162.126C1969.53 167.769 1980.24 187.804 1980.24 187.804H1980.8C1980.8 187.804 1980.24 163.537 1980.24 156.482V60.8245H2029.01V262.581H1978.83L1919.62 162.69C1916.24 157.329 1905.25 135.601 1905.25 135.601H1904.68C1904.68 135.601 1905.25 161.561 1905.25 168.616V262.581H1856.47Z" fill="white"/>
<path d="M316.94 485.97V317.84H372.857L393.297 391.441C396.351 402.023 402.93 429.77 402.93 429.77H403.399C403.399 429.77 409.978 402.023 412.797 391.441L433.472 317.84H489.859V485.97H451.798V401.317C451.798 394.498 452.503 367.691 452.503 367.691H452.033C452.033 367.691 446.159 392.852 444.28 398.966L420.081 485.97H385.779L361.814 399.201C359.935 393.087 354.061 367.691 354.061 367.691H353.591C353.591 367.691 354.296 394.733 354.296 401.552V485.97H316.94ZM505.831 485.97L566.212 317.84H608.972L669.587 485.97H625.888L616.02 455.636H557.284L547.651 485.97H505.831ZM566.917 425.773H606.387L593.7 385.092C590.881 376.392 587.122 361.342 587.122 361.342H586.652C586.652 361.342 582.658 376.392 579.839 385.092L566.917 425.773ZM686.096 485.97V317.84H766.447C799.809 317.84 825.183 335.006 825.183 366.28C825.183 385.798 815.551 400.142 796.05 406.961V407.666C810.617 412.604 818.135 421.775 820.484 438.471C824.009 460.574 821.659 481.738 827.533 483.854V485.97H787.122C782.658 483.384 783.363 463.631 780.779 446.936C778.664 431.416 770.676 422.951 752.82 422.951H727.681V485.97H686.096ZM727.681 392.147H758.929C775.375 392.147 783.833 384.387 783.833 371.689C783.833 359.461 775.845 350.761 759.869 350.761H727.681V392.147ZM848.419 485.97V317.84H890.004V378.743L947.801 317.84H997.139L932.764 385.327L1000.9 485.97H952.5L904.101 413.31L890.004 428.124V485.97H848.419ZM1016.94 485.97V317.84H1144.28V352.172H1058.52V382.27H1132.06V414.721H1058.52V450.698H1145.69V485.97H1016.94ZM1210.52 485.97V353.112H1161.65V317.84H1301.44V353.112H1252.1V485.97H1210.52ZM1362.8 485.97V317.84H1404.62L1454.43 402.258C1457.01 406.961 1465.94 423.656 1465.94 423.656H1466.41C1466.41 423.656 1465.94 403.434 1465.94 397.555V317.84H1506.58V485.97H1464.76L1415.43 402.728C1412.61 398.26 1403.44 380.154 1403.44 380.154H1402.97C1402.97 380.154 1403.44 401.788 1403.44 407.666V485.97H1362.8ZM1534.3 485.97V317.84H1661.64V352.172H1575.89V382.27H1649.42V414.721H1575.89V450.698H1663.05V485.97H1534.3ZM1721.07 485.97L1675.02 317.84H1717.07L1733.99 388.384C1737.75 404.609 1741.74 430.005 1741.74 430.005H1742.21C1742.21 430.005 1746.67 406.961 1750.43 390.03L1766.17 317.84H1804.71L1820.45 389.56C1824.21 406.726 1828.43 430.005 1828.43 430.005H1828.9C1828.9 430.005 1833.6 404.609 1837.36 387.914L1854.04 317.84H1895.86L1849.81 485.97H1809.17L1791.55 405.315C1788.49 391.911 1785.67 374.04 1785.67 374.04H1785.21C1785.21 374.04 1782.39 391.911 1779.57 405.315L1761.95 485.97H1721.07ZM1976.84 489.968C1932.2 489.968 1902.83 470.215 1901.89 433.062H1943.71C1945.59 449.993 1956.64 457.047 1976.61 457.047C1990.23 457.047 2003.63 452.109 2003.63 439.411C2003.63 426.008 1990 423.186 1966.97 417.542C1937.84 410.723 1907.06 401.788 1907.06 366.516C1907.06 330.538 1936.2 314.783 1973.79 314.783C2010.2 314.783 2038.4 331.243 2040.04 366.516H1999.4C1997.75 353.582 1987.88 346.293 1972.38 346.293C1957.81 346.293 1948.18 352.642 1948.18 362.048C1948.18 373.805 1961.1 376.627 1986.24 382.27C2017.49 389.56 2045.68 399.201 2045.68 435.178C2045.68 470.451 2015.61 489.968 1976.84 489.968Z" fill="white"/>
<path d="M2259.38 266.5C2259.38 305.461 2227.82 337.044 2188.9 337.044C2149.97 337.044 2118.41 305.461 2118.41 266.5C2118.41 227.54 2149.97 195.956 2188.9 195.956C2227.82 195.956 2259.38 227.54 2259.38 266.5Z" fill="#003CFF"/>
</g>
<defs>
<clipPath id="clip0_2124_2449">
<rect width="2463" height="533" fill="white"/>
</clipPath>
</defs>
</svg>
