<svg width="95" height="100" viewBox="0 0 95 100" fill="none" xmlns="http://www.w3.org/2000/svg">
<path d="M92.753 17.3533L49.3101 0.374532C47.6873 -0.124844 47.1879 -0.124844 45.565 0.374532L2.12221 17.3533C0.374507 18.1024 0 18.7266 0 20.4744V78.6517C0 80.5243 0.374507 80.8989 2.12221 81.7728L45.565 99.5006C46.4389 99.8751 46.9382 100 47.5624 100C48.0618 100 48.6859 99.8751 49.435 99.5006L92.8778 81.7728C94.6255 81.1485 95 80.5243 95 78.6517V20.4744C94.8752 18.7266 94.5007 18.1024 92.753 17.3533ZM83.8896 78.9014L47.4376 93.5081L10.9855 78.9014L47.4376 65.7927L83.8896 78.9014ZM11.1104 20.2247L47.4376 6.36704L83.7648 20.2247L47.4376 33.4582L11.1104 20.2247ZM61.2943 60.4245C62.0434 60.1748 62.5427 59.4257 62.5427 58.6766V40.5743C62.5427 39.8252 62.0434 39.0761 61.2943 38.8265L56.4258 36.829L88.6334 24.9688V74.2821L56.4258 62.422L61.2943 60.4245ZM56.1761 43.6954V55.5555L47.4376 59.0512L38.8239 55.5555V43.6954L47.4376 40.1997L56.1761 43.6954ZM33.7057 38.8265C32.9566 39.0761 32.4573 39.8252 32.4573 40.6991V58.6766C32.4573 59.4257 32.9566 60.1748 33.7057 60.4245L38.5742 62.422L6.36662 74.2821V24.9688L38.5742 36.9538L33.7057 38.8265Z" fill="#FFFFFF"/>
</svg>
