<svg width="656" height="100" viewBox="0 0 656 100" fill="none" xmlns="http://www.w3.org/2000/svg">
<path d="M92.753 17.3533L49.3101 0.374532C47.6873 -0.124844 47.1879 -0.124844 45.565 0.374532L2.12221 17.3533C0.374507 18.1024 0 18.7266 0 20.4744V78.6517C0 80.5243 0.374507 80.8989 2.12221 81.7728L45.565 99.5006C46.4389 99.8751 46.9382 100 47.5624 100C48.0618 100 48.6859 99.8751 49.435 99.5006L92.8778 81.7728C94.6255 81.1485 95 80.5243 95 78.6517V20.4744C94.8752 18.7266 94.5007 18.1024 92.753 17.3533ZM83.8896 78.9014L47.4376 93.5081L10.9855 78.9014L47.4376 65.7927L83.8896 78.9014ZM11.1104 20.2247L47.4376 6.36704L83.7648 20.2247L47.4376 33.4582L11.1104 20.2247ZM61.2943 60.4245C62.0434 60.1748 62.5427 59.4257 62.5427 58.6766V40.5743C62.5427 39.8252 62.0434 39.0761 61.2943 38.8265L56.4258 36.829L88.6334 24.9688V74.2821L56.4258 62.422L61.2943 60.4245ZM56.1761 43.6954V55.5555L47.4376 59.0512L38.8239 55.5555V43.6954L47.4376 40.1997L56.1761 43.6954ZM33.7057 38.8265C32.9566 39.0761 32.4573 39.8252 32.4573 40.6991V58.6766C32.4573 59.4257 32.9566 60.1748 33.7057 60.4245L38.5742 62.422L6.36662 74.2821V24.9688L38.5742 36.9538L33.7057 38.8265Z" fill="#FFFFFF"/>
<path d="M142.962 81.1717H158.105V30.8719H179.978V18.8284H121V30.8719H142.962V81.1717Z" fill="#FFFFFF"/>
<path d="M184.608 81.1717H199.752V54.3392H228.444V81.1717H243.587V18.8284H228.444V42.2071H199.752V18.8284H184.608V81.1717Z" fill="#FFFFFF"/>
<path d="M304.731 42.7384H269.929V30.9605H306.591V18.8284H254.786V81.1717H306.591V69.0395H269.929V54.8706H304.731V42.7384Z" fill="#FFFFFF"/>
<path d="M334.518 81.1717H368.435C383.755 81.1717 392.7 74.3529 392.7 62.5749C392.7 54.6935 387.121 50 381.099 48.1403C385.969 46.3692 390.397 42.1185 390.397 34.857C390.397 26.0899 383.933 18.8284 369.055 18.8284H334.518V81.1717ZM349.396 43.1812V30.1635H365.956C371.18 30.1635 374.811 32.0232 374.811 36.7166C374.811 40.5245 372.597 43.1812 365.867 43.1812H349.396ZM349.396 54.5163H366.753C373.394 54.5163 376.759 57.0845 376.759 62.0436C376.759 68.2425 372.332 69.9251 366.487 69.9251H349.396V54.5163Z" fill="#FFFFFF"/>
<path d="M399.68 81.1717H447.677V69.0395H414.823V18.8284H399.68V81.1717Z" fill="#FFFFFF"/>
<path d="M483.362 17.5C462.197 17.5 449.445 32.6431 449.445 49.8229C449.445 68.0654 461.489 82.5 482.654 82.5C505.324 82.5 516.836 67.0913 516.836 49.7343C516.836 32.7316 505.147 17.5 483.362 17.5ZM482.92 29.2779C495.495 29.2779 500.896 38.9305 500.896 49.9114C500.896 60.0954 496.026 70.7221 483.539 70.7221C471.319 70.7221 465.385 61.4237 465.385 49.6458C465.385 39.1076 470.787 29.2779 482.92 29.2779Z" fill="#FFFFFF"/>
<path d="M569.892 61.3352C567.412 67.357 563.516 70.8106 554.66 70.8106C542.351 70.8106 536.86 60.9809 536.86 49.4687C536.86 38.1335 542.882 29.1894 554.571 29.1894C565.198 29.1894 568.563 34.9455 569.892 38.4877H585.212C583.352 28.1267 573.877 17.5 554.749 17.5C532.698 17.5 520.92 32.9973 520.92 50.0886C520.92 67.0913 531.635 82.5 553.952 82.5C573.522 82.5 582.201 72.3161 585.035 61.3352H569.892Z" fill="#FFFFFF"/>
<path d="M590.582 81.1717H605.725V60.5381L613.606 53.985L636.542 81.1717H655.316L624.41 45.6608L653.722 18.8284H635.214C623.347 29.8978 614.669 37.7793 605.725 46.1035V18.8284H590.582V81.1717Z" fill="#FFFFFF"/>
</svg>
